<svg width="25" height="24" viewBox="0 0 25 24" fill="none" xmlns="http://www.w3.org/2000/svg">
<g clip-path="url(#clip0_12_3653)">
<path d="M24.4504 12C24.4504 14.3734 23.7467 16.6935 22.4281 18.6668C21.1095 20.6402 19.2354 22.1783 17.0426 23.0866C14.8499 23.9948 12.4371 24.2324 10.1094 23.7694C7.78159 23.3064 5.64339 22.1635 3.96516 20.4853C2.28693 18.8071 1.14404 16.6689 0.681021 14.3411C0.217999 12.0133 0.455639 9.60051 1.36389 7.4078C2.27214 5.21509 3.81021 3.34094 5.7836 2.02236C7.75699 0.703788 10.0771 0 12.4504 0C15.633 0 18.6853 1.26428 20.9357 3.51472C23.1862 5.76516 24.4504 8.8174 24.4504 12Z" fill="#003399"/>
<path d="M13.4988 7.34508C13.1375 7.34308 12.7798 7.41743 12.4493 7.56326C12.1198 7.70818 11.8232 7.91863 11.5777 8.18181C11.3037 8.47442 11.0793 8.80973 10.9133 9.17454C10.7212 9.59917 10.5806 10.0452 10.4944 10.5033H14.0388V11.6269H10.3777C10.3777 11.7098 10.3777 11.7884 10.37 11.8647C10.3624 11.9411 10.3613 11.9989 10.3613 12.0698V12.5793C10.3613 12.6884 10.3668 12.8029 10.3777 12.9229H13.5413V14.0476H10.5293C10.7155 15.004 11.0602 15.7338 11.5635 16.2371C12.0668 16.7404 12.7282 16.992 13.5478 16.992C13.94 16.994 14.331 16.9501 14.7129 16.8611C15.07 16.7783 15.4188 16.6629 15.7548 16.5164V17.8451C15.4248 18.0011 15.0782 18.1193 14.7217 18.1974C14.2985 18.2916 13.8656 18.3351 13.4322 18.3273C12.8553 18.3367 12.2818 18.2364 11.7424 18.0316C11.2536 17.8371 10.8086 17.5471 10.4333 17.1785C10.0535 16.7868 9.74519 16.3315 9.52239 15.8334C9.26916 15.2626 9.08989 14.6617 8.98894 14.0454H7.65039V12.9229H8.86457C8.85366 12.7978 8.84821 12.6942 8.84821 12.612V12.2509C8.84821 12.1309 8.84821 12.0076 8.85585 11.8822C8.86348 11.7567 8.86457 11.6716 8.86457 11.6269H7.65039V10.5033H8.95948C9.04534 9.86515 9.21632 9.24142 9.46785 8.64872C9.68868 8.12766 9.99673 7.64806 10.3788 7.23054C10.747 6.83919 11.1929 6.52896 11.6878 6.31963C12.2259 6.09952 12.803 5.99078 13.3842 5.99999C13.8741 5.99487 14.3624 6.0554 14.8362 6.17999C15.2988 6.3052 15.7401 6.49898 16.1453 6.7549L15.4908 7.9549C15.201 7.78007 14.8935 7.63671 14.5733 7.52726C14.2291 7.40217 13.865 7.34045 13.4988 7.34508Z" fill="white"/>
</g>
<defs>
<clipPath id="clip0_12_3653">
<rect width="24" height="24" fill="white" transform="translate(0.450439)"/>
</clipPath>
</defs>
</svg>
